{
    "asset" : {
        "generator" : "Khronos glTF Blender I/O v3.3.27",
        "version" : "2.0"
    },
    "extensionsUsed" : [
        "KHR_materials_transmission",
        "KHR_materials_ior",
        "KHR_materials_emissive_strength"
    ],
    "scene" : 0,
    "scenes" : [
        {
            "name" : "Scene",
            "nodes" : [
                0,
                1,
                2,
                3,
                4,
                5,
                6,
                7
            ]
        }
    ],
    "nodes" : [
        {
            "mesh" : 0,
            "name" : "Pupil.004",
            "rotation" : [
                -0.060824453830718994,
                0.14684326946735382,
                -0.3778187036514282,
                0.912135124206543
            ],
            "scale" : [
                0.6735365986824036,
                0.6735366582870483,
                0.6735366582870483
            ],
            "translation" : [
                -0.0005874466150999069,
                0.19744154810905457,
                0.08066257834434509
            ]
        },
        {
            "mesh" : 1,
            "name" : "Iris Eye Outside.004",
            "rotation" : [
                0.6981180906295776,
                0.1123889610171318,
                -0.11238889396190643,
                0.6981179118156433
            ],
            "scale" : [
                0.6735366582870483,
                0.6735368371009827,
                0.6735365390777588
            ],
            "translation" : [
                -0.0005013458430767059,
                0.1972176730632782,
                0.06883499026298523
            ]
        },
        {
            "mesh" : 2,
            "name" : "Iris Eye Inside.004",
            "rotation" : [
                0,
                0.15894201397895813,
                0,
                0.9872879385948181
            ],
            "scale" : [
                0.6735365986824036,
                0.6735365390777588,
                0.6735367774963379
            ],
            "translation" : [
                -0.0005648955702781677,
                0.1972176730632782,
                0.07753823697566986
            ]
        },
        {
            "mesh" : 3,
            "name" : "Horn Outside.004",
            "rotation" : [
                -0.3619433641433716,
                0.05616256967186928,
                -0.13509409129619598,
                0.9206477999687195
            ],
            "scale" : [
                0.6735365390777588,
                0.6735365390777588,
                0.6735366582870483
            ],
            "translation" : [
                -0.0012524835765361786,
                0.37487971782684326,
                0.1338931769132614
            ]
        },
        {
            "mesh" : 4,
            "name" : "Horn Inside.004",
            "rotation" : [
                -0.36194348335266113,
                0.056162577122449875,
                -0.13509412109851837,
                0.9206477403640747
            ],
            "scale" : [
                0.6735365390777588,
                0.6735365390777588,
                0.6735366582870483
            ],
            "translation" : [
                -0.0012579988688230515,
                0.37534236907958984,
                0.13348151743412018
            ]
        },
        {
            "mesh" : 5,
            "name" : "Head.007",
            "rotation" : [
                0,
                -0.003652328159660101,
                0,
                0.9999933242797852
            ],
            "scale" : [
                0.6735364198684692,
                0.6735365390777588,
                0.6735364198684692
            ],
            "translation" : [
                -0.00031406618654727936,
                0.1908874213695526,
                0.04158555343747139
            ]
        },
        {
            "mesh" : 6,
            "name" : "Fin Outside.004",
            "rotation" : [
                0.02143700234591961,
                0.384365439414978,
                -0.0291919969022274,
                0.9224703311920166
            ],
            "scale" : [
                0.6735366582870483,
                0.6735364198684692,
                0.6735365390777588
            ],
            "translation" : [
                -0.00568025466054678,
                0.12927159667015076,
                0.09553404152393341
            ]
        },
        {
            "mesh" : 7,
            "name" : "Fin Inside.004",
            "rotation" : [
                -0.0019424045458436012,
                0.38494691252708435,
                0.025745779275894165,
                0.9225775003433228
            ],
            "scale" : [
                0.6735366582870483,
                0.673536479473114,
                0.6735365986824036
            ],
            "translation" : [
                -0.0056905075907707214,
                0.11562296748161316,
                0.09693723917007446
            ]
        }
    ],
    "materials" : [
        {
            "doubleSided" : true,
            "name" : "Eye",
            "pbrMetallicRoughness" : {
                "baseColorFactor" : [
                    0,
                    0,
                    0,
                    1
                ],
                "metallicFactor" : 0,
                "roughnessFactor" : 0.11783400177955627
            }
        },
        {
            "doubleSided" : true,
            "extensions" : {
                "KHR_materials_transmission" : {
                    "transmissionFactor" : 1
                },
                "KHR_materials_ior" : {
                    "ior" : 1.3329999446868896
                }
            },
            "name" : "Tail",
            "pbrMetallicRoughness" : {
                "baseColorFactor" : [
                    0.8000000715255737,
                    0.48963385820388794,
                    0.15874919295310974,
                    1
                ],
                "metallicFactor" : 0,
                "roughnessFactor" : 0.20000000298023224
            }
        },
        {
            "doubleSided" : true,
            "emissiveFactor" : [
                1,
                0.36854442954063416,
                0.023976407945156097
            ],
            "extensions" : {
                "KHR_materials_emissive_strength" : {
                    "emissiveStrength" : 5
                }
            },
            "name" : "Tail Base",
            "pbrMetallicRoughness" : {
                "baseColorFactor" : [
                    0.8000000715255737,
                    0.24219076335430145,
                    0.018783191218972206,
                    1
                ],
                "metallicFactor" : 0,
                "roughnessFactor" : 0.5
            }
        },
        {
            "doubleSided" : true,
            "name" : "Skin",
            "pbrMetallicRoughness" : {
                "baseColorFactor" : [
                    1,
                    0.15592621266841888,
                    0,
                    1
                ],
                "metallicFactor" : 0,
                "roughnessFactor" : 0.5
            }
        },
        {
            "doubleSided" : true,
            "emissiveFactor" : [
                1,
                0.5499250888824463,
                0.037441618740558624
            ],
            "extensions" : {
                "KHR_materials_emissive_strength" : {
                    "emissiveStrength" : 5
                }
            },
            "name" : "Tail.001",
            "pbrMetallicRoughness" : {
                "baseColorFactor" : [
                    0.8000000715255737,
                    0.48963385820388794,
                    0.15874919295310974,
                    1
                ],
                "metallicFactor" : 0,
                "roughnessFactor" : 0
            }
        }
    ],
    "meshes" : [
        {
            "name" : "Roundcube.038",
            "primitives" : [
                {
                    "attributes" : {
                        "POSITION" : 0,
                        "NORMAL" : 1
                    },
                    "indices" : 2,
                    "material" : 0
                }
            ]
        },
        {
            "name" : "Sphere.026",
            "primitives" : [
                {
                    "attributes" : {
                        "POSITION" : 3,
                        "NORMAL" : 4,
                        "TEXCOORD_0" : 5
                    },
                    "indices" : 6
                }
            ]
        },
        {
            "name" : "Sphere.027",
            "primitives" : [
                {
                    "attributes" : {
                        "POSITION" : 7,
                        "NORMAL" : 8,
                        "TEXCOORD_0" : 9
                    },
                    "indices" : 10
                }
            ]
        },
        {
            "name" : "Cube.021",
            "primitives" : [
                {
                    "attributes" : {
                        "POSITION" : 11,
                        "NORMAL" : 12,
                        "TEXCOORD_0" : 13
                    },
                    "indices" : 14,
                    "material" : 1
                }
            ]
        },
        {
            "name" : "Cube.022",
            "primitives" : [
                {
                    "attributes" : {
                        "POSITION" : 15,
                        "NORMAL" : 16,
                        "TEXCOORD_0" : 17
                    },
                    "indices" : 14,
                    "material" : 2
                }
            ]
        },
        {
            "name" : "Roundcube.037",
            "primitives" : [
                {
                    "attributes" : {
                        "POSITION" : 18,
                        "NORMAL" : 19
                    },
                    "indices" : 20,
                    "material" : 3
                }
            ]
        },
        {
            "name" : "Roundcube.039",
            "primitives" : [
                {
                    "attributes" : {
                        "POSITION" : 21,
                        "NORMAL" : 22,
                        "TEXCOORD_0" : 23
                    },
                    "indices" : 24,
                    "material" : 1
                }
            ]
        },
        {
            "name" : "Roundcube.040",
            "primitives" : [
                {
                    "attributes" : {
                        "POSITION" : 25,
                        "NORMAL" : 26,
                        "TEXCOORD_0" : 27
                    },
                    "indices" : 24,
                    "material" : 4
                }
            ]
        }
    ],
    "accessors" : [
        {
            "bufferView" : 0,
            "componentType" : 5126,
            "count" : 12842,
            "max" : [
                0.2662540078163147,
                0.2657838761806488,
                0.1859438717365265
            ],
            "min" : [
                -0.2633492052555084,
                -0.2638193368911743,
                -0.19484096765518188
            ],
            "type" : "VEC3"
        },
        {
            "bufferView" : 1,
            "componentType" : 5126,
            "count" : 12842,
            "type" : "VEC3"
        },
        {
            "bufferView" : 2,
            "componentType" : 5123,
            "count" : 76800,
            "type" : "SCALAR"
        },
        {
            "bufferView" : 3,
            "componentType" : 5126,
            "count" : 4026,
            "max" : [
                0.32888850569725037,
                0.1677536815404892,
                0.13120760023593903
            ],
            "min" : [
                -0.3371950387954712,
                -0.18776239454746246,
                -0.13120761513710022
            ],
            "type" : "VEC3"
        },
        {
            "bufferView" : 4,
            "componentType" : 5126,
            "count" : 4026,
            "type" : "VEC3"
        },
        {
            "bufferView" : 5,
            "componentType" : 5126,
            "count" : 4026,
            "type" : "VEC2"
        },
        {
            "bufferView" : 6,
            "componentType" : 5123,
            "count" : 23040,
            "type" : "SCALAR"
        },
        {
            "bufferView" : 7,
            "componentType" : 5126,
            "count" : 1118,
            "max" : [
                0.3209764361381531,
                0.11915066093206406,
                0.1875022053718567
            ],
            "min" : [
                -0.3207322657108307,
                -0.11915066093206406,
                -0.1872580647468567
            ],
            "type" : "VEC3"
        },
        {
            "bufferView" : 8,
            "componentType" : 5126,
            "count" : 1118,
            "type" : "VEC3"
        },
        {
            "bufferView" : 9,
            "componentType" : 5126,
            "count" : 1118,
            "type" : "VEC2"
        },
        {
            "bufferView" : 10,
            "componentType" : 5123,
            "count" : 5760,
            "type" : "SCALAR"
        },
        {
            "bufferView" : 11,
            "componentType" : 5126,
            "count" : 772,
            "max" : [
                0.22317245602607727,
                0.15112020075321198,
                0.07321558147668839
            ],
            "min" : [
                -0.24389855563640594,
                -0.14135698974132538,
                -0.08349845558404922
            ],
            "type" : "VEC3"
        },
        {
            "bufferView" : 12,
            "componentType" : 5126,
            "count" : 772,
            "type" : "VEC3"
        },
        {
            "bufferView" : 13,
            "componentType" : 5126,
            "count" : 772,
            "type" : "VEC2"
        },
        {
            "bufferView" : 14,
            "componentType" : 5123,
            "count" : 4608,
            "type" : "SCALAR"
        },
        {
            "bufferView" : 15,
            "componentType" : 5126,
            "count" : 772,
            "max" : [
                0.1993739753961563,
                0.10509900748729706,
                0.05841950327157974
            ],
            "min" : [
                -0.21172088384628296,
                -0.09928291290998459,
                -0.0645451545715332
            ],
            "type" : "VEC3"
        },
        {
            "bufferView" : 16,
            "componentType" : 5126,
            "count" : 772,
            "type" : "VEC3"
        },
        {
            "bufferView" : 17,
            "componentType" : 5126,
            "count" : 772,
            "type" : "VEC2"
        },
        {
            "bufferView" : 18,
            "componentType" : 5126,
            "count" : 5776,
            "max" : [
                0.41309061646461487,
                0.31204795837402344,
                0.25781989097595215
            ],
            "min" : [
                -0.4130555987358093,
                -0.27776026725769043,
                -0.3726688623428345
            ],
            "type" : "VEC3"
        },
        {
            "bufferView" : 19,
            "componentType" : 5126,
            "count" : 5776,
            "type" : "VEC3"
        },
        {
            "bufferView" : 20,
            "componentType" : 5123,
            "count" : 34272,
            "type" : "SCALAR"
        },
        {
            "bufferView" : 21,
            "componentType" : 5126,
            "count" : 4868,
            "max" : [
                0.34878113865852356,
                0.1372317522764206,
                0.3431735336780548
            ],
            "min" : [
                -0.33302319049835205,
                -0.14316774904727936,
                -0.3644026815891266
            ],
            "type" : "VEC3"
        },
        {
            "bufferView" : 22,
            "componentType" : 5126,
            "count" : 4868,
            "type" : "VEC3"
        },
        {
            "bufferView" : 23,
            "componentType" : 5126,
            "count" : 4868,
            "type" : "VEC2"
        },
        {
            "bufferView" : 24,
            "componentType" : 5123,
            "count" : 29184,
            "type" : "SCALAR"
        },
        {
            "bufferView" : 25,
            "componentType" : 5126,
            "count" : 4868,
            "max" : [
                0.3124159574508667,
                0.07694843411445618,
                0.3136107325553894
            ],
            "min" : [
                -0.30803820490837097,
                -0.07964419573545456,
                -0.3213011920452118
            ],
            "type" : "VEC3"
        },
        {
            "bufferView" : 26,
            "componentType" : 5126,
            "count" : 4868,
            "type" : "VEC3"
        },
        {
            "bufferView" : 27,
            "componentType" : 5126,
            "count" : 4868,
            "type" : "VEC2"
        }
    ],
    "bufferViews" : [
        {
            "buffer" : 0,
            "byteLength" : 154104,
            "byteOffset" : 0,
            "target" : 34962
        },
        {
            "buffer" : 0,
            "byteLength" : 154104,
            "byteOffset" : 154104,
            "target" : 34962
        },
        {
            "buffer" : 0,
            "byteLength" : 153600,
            "byteOffset" : 308208,
            "target" : 34963
        },
        {
            "buffer" : 0,
            "byteLength" : 48312,
            "byteOffset" : 461808,
            "target" : 34962
        },
        {
            "buffer" : 0,
            "byteLength" : 48312,
            "byteOffset" : 510120,
            "target" : 34962
        },
        {
            "buffer" : 0,
            "byteLength" : 32208,
            "byteOffset" : 558432,
            "target" : 34962
        },
        {
            "buffer" : 0,
            "byteLength" : 46080,
            "byteOffset" : 590640,
            "target" : 34963
        },
        {
            "buffer" : 0,
            "byteLength" : 13416,
            "byteOffset" : 636720,
            "target" : 34962
        },
        {
            "buffer" : 0,
            "byteLength" : 13416,
            "byteOffset" : 650136,
            "target" : 34962
        },
        {
            "buffer" : 0,
            "byteLength" : 8944,
            "byteOffset" : 663552,
            "target" : 34962
        },
        {
            "buffer" : 0,
            "byteLength" : 11520,
            "byteOffset" : 672496,
            "target" : 34963
        },
        {
            "buffer" : 0,
            "byteLength" : 9264,
            "byteOffset" : 684016,
            "target" : 34962
        },
        {
            "buffer" : 0,
            "byteLength" : 9264,
            "byteOffset" : 693280,
            "target" : 34962
        },
        {
            "buffer" : 0,
            "byteLength" : 6176,
            "byteOffset" : 702544,
            "target" : 34962
        },
        {
            "buffer" : 0,
            "byteLength" : 9216,
            "byteOffset" : 708720,
            "target" : 34963
        },
        {
            "buffer" : 0,
            "byteLength" : 9264,
            "byteOffset" : 717936,
            "target" : 34962
        },
        {
            "buffer" : 0,
            "byteLength" : 9264,
            "byteOffset" : 727200,
            "target" : 34962
        },
        {
            "buffer" : 0,
            "byteLength" : 6176,
            "byteOffset" : 736464,
            "target" : 34962
        },
        {
            "buffer" : 0,
            "byteLength" : 69312,
            "byteOffset" : 742640,
            "target" : 34962
        },
        {
            "buffer" : 0,
            "byteLength" : 69312,
            "byteOffset" : 811952,
            "target" : 34962
        },
        {
            "buffer" : 0,
            "byteLength" : 68544,
            "byteOffset" : 881264,
            "target" : 34963
        },
        {
            "buffer" : 0,
            "byteLength" : 58416,
            "byteOffset" : 949808,
            "target" : 34962
        },
        {
            "buffer" : 0,
            "byteLength" : 58416,
            "byteOffset" : 1008224,
            "target" : 34962
        },
        {
            "buffer" : 0,
            "byteLength" : 38944,
            "byteOffset" : 1066640,
            "target" : 34962
        },
        {
            "buffer" : 0,
            "byteLength" : 58368,
            "byteOffset" : 1105584,
            "target" : 34963
        },
        {
            "buffer" : 0,
            "byteLength" : 58416,
            "byteOffset" : 1163952,
            "target" : 34962
        },
        {
            "buffer" : 0,
            "byteLength" : 58416,
            "byteOffset" : 1222368,
            "target" : 34962
        },
        {
            "buffer" : 0,
            "byteLength" : 38944,
            "byteOffset" : 1280784,
            "target" : 34962
        }
    ],
    "buffers" : [
        {
            "byteLength" : 1319728,
            "uri" : "data:application/octet-stream;base64,"
        }
    ]
}